<svg id="Layer_1" data-name="Layer 1" xmlns="http://www.w3.org/2000/svg" viewBox="0 0 90 49">
  <g>
    <path id="fullLogo" d="M12.254,37.5l-2.2056,8.0985H7.7711L6.134,39.0227,4.4834,45.5982H2.2062L0,37.5H1.6937l1.6651,6.5469L5.01,37.5H7.2441L8.91,44.0466,10.56,37.5Zm14.9779,2.3628V39.777c0-.7543-.3273-1.0531-1.1386-1.0531h-.27c-.8113,0-1.1386.3128-1.1386,1.0676v4.44h2.8748v1.3664h-6.604V44.2318h2.0355V39.0367l-.014-.1706H20.9552V37.5h3.3879l.1276.7257a1.71,1.71,0,0,1,1.7367-.8678h.4554c1.537,0,2.2627.6832,2.2627,2.1631v.1852Zm18.28-.3418v6.0775H43.8178V39.7915c0-.7548-.3273-1.0676-1.1386-1.0676H41.3554c-.8113,0-1.1386.3128-1.1386,1.0676v5.8067H38.5231V39.0367L38.41,37.5h1.4514l.1141.6692c.2988-.5551.7968-.8113,1.7508-.8113h1.5084C44.7858,37.3576,45.5115,38.0408,45.5115,39.5207ZM55.4483,37.5l-.1,1.537v7.8c0,1.48-.7257,2.1636-2.2772,2.1636H50.3243c-1.551,0-2.2773-.6832-2.2773-2.1636a.6283.6283,0,0,1,.0146-.1852l1.6936-.1562V46.58c0,.7543.3273,1.0536,1.1246,1.0536h1.6366c.8113,0,1.1386-.3134,1.1386-1.0676V45.2138a1.9067,1.9067,0,0,1-1.5515.5265H50.3243c-1.551,0-2.2773-.6832-2.2773-2.1491V39.5207c0-1.48.7263-2.1631,2.2773-2.1631h1.7792c.982,0,1.466.27,1.7647.8538l.1282-.7117ZM53.655,43.3069V39.7915c0-.7548-.3273-1.0676-1.1386-1.0676H50.88c-.8113,0-1.1246.3128-1.1246,1.0676v3.5154c0,.7683.3133,1.0671,1.1246,1.0671h1.6366C53.3277,44.374,53.655,44.0752,53.655,43.3069ZM65.57,39.5207v4.0705c0,1.4659-.7257,2.1491-2.2632,2.1491H61.5284c-.9965,0-1.4945-.2843-1.7793-.8678l-.1281.7257H58.17l.1136-1.523V34.7245h1.6936v3.16a1.907,1.907,0,0,1,1.5516-.5265h1.7787C64.8446,37.3576,65.57,38.0408,65.57,39.5207Zm-1.6936.2708c0-.7548-.3274-1.0676-1.1387-1.0676H61.1154c-.8113,0-1.1386.3128-1.1386,1.0676v3.5154c0,.7683.3273,1.0671,1.1386,1.0671H62.738c.8113,0,1.1387-.2988,1.1387-1.0671ZM17.4953,37.5H13.7521v1.3664h2.0355v5.3657H13.7521v1.3664h5.7787V44.2318H17.4953Zm17.0263,0H30.7784v1.3664h2.0355v5.3657H30.7784v1.3664h5.7787V44.2318H34.5216Zm37.0432,6.7321V37.5H67.8216v1.3664h2.0355v5.3657H67.8216v1.3664H73.6V44.2318Zm6.52-5.3657v4.4408c0,.7683.3279,1.0671,1.1392,1.0671h1.7216V45.74H78.6543c-1.537,0-2.2632-.6832-2.2632-2.1491V38.8661H74.6123V37.5h1.7788v-1.537h1.6936V37.5h2.8608v1.3664ZM82.7694,43.62a.4833.4833,0,0,1,.0145-.1847l1.6792-.1566v.1c0,.74.3418,1.039,1.1386,1.039h1.6226c.7547,0,1.0675-.2993,1.0675-.9965v-.1421c0-.5981-.1992-.7542-1.3949-.9254l-1.8643-.27c-1.6511-.2422-2.1916-.7117-2.1916-1.9359v-.6116c0-1.4944.7257-2.1776,2.2772-2.1776H87.68c1.5515,0,2.2632.6686,2.2632,2.1206v.1852l-1.6936.1561v-.0851c0-.7542-.3273-1.0535-1.1386-1.0535H85.6162c-.7542,0-1.0816.2993-1.0816.9965V39.82c0,.555.2132.6977,1.3233.8683l1.85.27C89.43,41.2,90,41.6843,90,42.9365v.6262c0,1.4944-.7262,2.1776-2.2772,2.1776H85.0466C83.4811,45.74,82.7694,45.0857,82.7694,43.62ZM17.4813,34.1264H15.19V35.82h2.2918Zm17.0263,0H32.2159V35.82h2.2917Zm37.0432,0H69.259V35.82h2.2918Z" style="fill: #fff"/>
    <path id="logoMark" d="M21.1785,10.5982,31.7767,0l2.9874,2.9874L24.1659,13.5856Zm44.6556,2.9874,2.9874-2.9874L58.2233,0,55.2359,2.9874ZM37.3889,26.8091,45,19.1983l7.6109,7.6108L63.2088,16.2109,52.6106,5.6127,45,13.223l-7.6108-7.61L26.7907,16.2109Zm0-15.2217,4.6235,4.6235-4.6235,4.6229L32.766,16.2109Zm15.2217,0,4.6234,4.6235-4.6234,4.6229-4.6235-4.6229Z" style="fill: #39f"/>
  </g>
</svg>
